<svg xmlns="http://www.w3.org/2000/svg" xmlns:xlink="http://www.w3.org/1999/xlink" width="500" zoomAndPan="magnify" viewBox="0 0 375 374.999991" height="500" preserveAspectRatio="xMidYMid meet" version="1.0"><defs><g/></defs><g fill="#000000" fill-opacity="1"><g transform="translate(136.201841, 207.749986)"><g><path d="M 15.140625 -40.421875 C 21.054688 -40.421875 25.585938 -38.765625 28.734375 -35.453125 C 31.890625 -32.140625 33.46875 -27.222656 33.46875 -20.703125 C 33.46875 -16.472656 32.753906 -12.804688 31.328125 -9.703125 C 29.910156 -6.597656 27.820312 -4.203125 25.0625 -2.515625 C 22.3125 -0.835938 18.984375 0 15.078125 0 L 4.703125 0 L 4.703125 -40.421875 Z M 14.90625 -6.375 C 17.570312 -6.375 19.726562 -7.03125 21.375 -8.34375 C 23.019531 -9.664062 24.1875 -11.382812 24.875 -13.5 C 25.570312 -15.613281 25.921875 -17.957031 25.921875 -20.53125 C 25.921875 -24.632812 25.054688 -28.007812 23.328125 -30.65625 C 21.597656 -33.300781 18.789062 -34.625 14.90625 -34.625 L 12.1875 -34.625 L 12.1875 -6.375 Z M 14.90625 -6.375 "/></g></g></g><g fill="#000000" fill-opacity="1"><g transform="translate(171.405502, 207.749986)"><g><path d="M 19.140625 0.703125 C 15.546875 0.703125 12.476562 -0.148438 9.9375 -1.859375 C 7.40625 -3.578125 5.492188 -6.003906 4.203125 -9.140625 C 2.910156 -12.285156 2.265625 -15.984375 2.265625 -20.234375 C 2.265625 -24.453125 2.90625 -28.128906 4.1875 -31.265625 C 5.476562 -34.410156 7.375 -36.835938 9.875 -38.546875 C 12.375 -40.265625 15.40625 -41.125 18.96875 -41.125 C 22.65625 -41.125 25.765625 -40.257812 28.296875 -38.53125 C 30.835938 -36.800781 32.738281 -34.367188 34 -31.234375 C 35.269531 -28.097656 35.90625 -24.429688 35.90625 -20.234375 C 35.90625 -15.984375 35.25 -12.285156 33.9375 -9.140625 C 32.632812 -6.003906 30.726562 -3.578125 28.21875 -1.859375 C 25.707031 -0.148438 22.679688 0.703125 19.140625 0.703125 Z M 19.140625 -5.515625 C 20.859375 -5.515625 22.398438 -6.0625 23.765625 -7.15625 C 25.128906 -8.257812 26.207031 -9.929688 27 -12.171875 C 27.789062 -14.421875 28.1875 -17.171875 28.1875 -20.421875 C 28.1875 -25.191406 27.378906 -28.828125 25.765625 -31.328125 C 24.148438 -33.835938 21.882812 -35.09375 18.96875 -35.09375 C 16.125 -35.09375 13.921875 -33.835938 12.359375 -31.328125 C 10.804688 -28.828125 10.03125 -25.171875 10.03125 -20.359375 C 10.03125 -17.066406 10.398438 -14.3125 11.140625 -12.09375 C 11.890625 -9.882812 12.945312 -8.234375 14.3125 -7.140625 C 15.675781 -6.054688 17.285156 -5.515625 19.140625 -5.515625 Z M 19.140625 -5.515625 "/></g></g></g><g fill="#000000" fill-opacity="1"><g transform="translate(209.566968, 207.749986)"><g><path d="M 14.734375 0.640625 C 12.929688 0.640625 11.234375 0.425781 9.640625 0 C 8.046875 -0.425781 6.648438 -0.976562 5.453125 -1.65625 C 4.253906 -2.332031 3.304688 -3.035156 2.609375 -3.765625 L 5.5625 -9.859375 C 6.007812 -9.273438 6.6875 -8.65625 7.59375 -8 C 8.507812 -7.34375 9.550781 -6.78125 10.71875 -6.3125 C 11.882812 -5.851562 13.046875 -5.625 14.203125 -5.625 C 15.734375 -5.625 17.015625 -6.046875 18.046875 -6.890625 C 19.085938 -7.734375 19.609375 -8.914062 19.609375 -10.4375 C 19.609375 -11.425781 19.367188 -12.28125 18.890625 -13 C 18.421875 -13.726562 17.789062 -14.378906 17 -14.953125 C 16.21875 -15.523438 15.015625 -16.300781 13.390625 -17.28125 C 11.171875 -18.632812 9.429688 -19.789062 8.171875 -20.75 C 6.921875 -21.707031 5.832031 -22.960938 4.90625 -24.515625 C 3.988281 -26.078125 3.53125 -27.957031 3.53125 -30.15625 C 3.53125 -32.300781 3.988281 -34.203125 4.90625 -35.859375 C 5.832031 -37.515625 7.191406 -38.804688 8.984375 -39.734375 C 10.785156 -40.660156 12.953125 -41.125 15.484375 -41.125 C 19.597656 -41.125 23.039062 -39.867188 25.8125 -37.359375 L 22.5625 -31.4375 C 22.226562 -31.894531 21.734375 -32.398438 21.078125 -32.953125 C 20.421875 -33.503906 19.628906 -33.976562 18.703125 -34.375 C 17.773438 -34.769531 16.800781 -34.96875 15.78125 -34.96875 C 14.289062 -34.96875 13.132812 -34.535156 12.3125 -33.671875 C 11.488281 -32.816406 11.078125 -31.742188 11.078125 -30.453125 C 11.078125 -29.460938 11.320312 -28.585938 11.8125 -27.828125 C 12.3125 -27.066406 12.960938 -26.382812 13.765625 -25.78125 C 14.566406 -25.175781 15.644531 -24.46875 17 -23.65625 C 19.445312 -22.207031 21.316406 -20.988281 22.609375 -20 C 23.910156 -19.019531 25 -17.769531 25.875 -16.25 C 26.757812 -14.738281 27.203125 -12.878906 27.203125 -10.671875 C 27.203125 -8.328125 26.695312 -6.304688 25.6875 -4.609375 C 24.6875 -2.910156 23.25 -1.609375 21.375 -0.703125 C 19.5 0.191406 17.285156 0.640625 14.734375 0.640625 Z M 14.734375 0.640625 "/></g></g></g><g fill="#000000" fill-opacity="1"><g transform="translate(171.558905, 222.845936)"><g><path d="M 4.1875 -5.46875 L 1.34375 -5.46875 L 1.34375 -3.34375 L 4.109375 -3.34375 L 4.109375 -2.78125 L 1.34375 -2.78125 L 1.34375 -0.5625 L 4.3125 -0.5625 L 4.265625 0 L 0.703125 0 L 0.703125 -6.03125 L 4.1875 -6.03125 Z M 4.1875 -5.46875 "/></g></g></g><g fill="#000000" fill-opacity="1"><g transform="translate(178.644226, 222.845936)"><g><path d="M 4.765625 -6.03125 L 5.390625 -6.03125 L 5.390625 0 L 4.84375 0 L 1.328125 -4.9375 L 1.328125 0 L 0.703125 0 L 0.703125 -6.03125 L 1.265625 -6.03125 L 4.765625 -1.109375 Z M 4.765625 -6.03125 "/></g></g></g><g fill="#000000" fill-opacity="1"><g transform="translate(187.218068, 222.845936)"><g><path d="M 3.546875 -2.921875 L 5.65625 -2.921875 L 5.65625 0 L 5.15625 0 L 5.0625 -0.8125 C 4.675781 -0.226562 4.046875 0.0625 3.171875 0.0625 C 2.628906 0.0625 2.15625 -0.0507812 1.75 -0.28125 C 1.351562 -0.519531 1.046875 -0.859375 0.828125 -1.296875 C 0.609375 -1.742188 0.5 -2.28125 0.5 -2.90625 C 0.5 -3.539062 0.617188 -4.097656 0.859375 -4.578125 C 1.109375 -5.054688 1.457031 -5.429688 1.90625 -5.703125 C 2.351562 -5.984375 2.878906 -6.125 3.484375 -6.125 C 4.460938 -6.125 5.171875 -5.742188 5.609375 -4.984375 L 5.09375 -4.59375 C 4.757812 -5.207031 4.207031 -5.515625 3.4375 -5.515625 C 2.988281 -5.515625 2.59375 -5.40625 2.25 -5.1875 C 1.914062 -4.96875 1.648438 -4.660156 1.453125 -4.265625 C 1.265625 -3.878906 1.171875 -3.425781 1.171875 -2.90625 C 1.171875 -2.144531 1.351562 -1.554688 1.71875 -1.140625 C 2.082031 -0.734375 2.585938 -0.53125 3.234375 -0.53125 C 3.773438 -0.53125 4.207031 -0.671875 4.53125 -0.953125 C 4.863281 -1.234375 5.03125 -1.613281 5.03125 -2.09375 L 5.03125 -2.390625 L 3.546875 -2.390625 Z M 3.546875 -2.921875 "/></g></g></g><g fill="#000000" fill-opacity="1"><g transform="translate(195.876963, 222.845936)"><g><path d="M 0.703125 0 L 0.703125 -6.03125 L 1.34375 -6.03125 L 1.34375 0 Z M 0.703125 0 "/></g></g></g><g fill="#000000" fill-opacity="1"><g transform="translate(200.402032, 222.845936)"><g><path d="M 4.765625 -6.03125 L 5.390625 -6.03125 L 5.390625 0 L 4.84375 0 L 1.328125 -4.9375 L 1.328125 0 L 0.703125 0 L 0.703125 -6.03125 L 1.265625 -6.03125 L 4.765625 -1.109375 Z M 4.765625 -6.03125 "/></g></g></g><g fill="#000000" fill-opacity="1"><g transform="translate(208.975874, 222.845936)"><g><path d="M 4.1875 -5.46875 L 1.34375 -5.46875 L 1.34375 -3.34375 L 4.109375 -3.34375 L 4.109375 -2.78125 L 1.34375 -2.78125 L 1.34375 -0.5625 L 4.3125 -0.5625 L 4.265625 0 L 0.703125 0 L 0.703125 -6.03125 L 4.1875 -6.03125 Z M 4.1875 -5.46875 "/></g></g></g><g fill="#000000" fill-opacity="1"><g transform="translate(216.061195, 222.845936)"><g><path d="M 4.1875 -5.46875 L 1.34375 -5.46875 L 1.34375 -3.34375 L 4.109375 -3.34375 L 4.109375 -2.78125 L 1.34375 -2.78125 L 1.34375 -0.5625 L 4.3125 -0.5625 L 4.265625 0 L 0.703125 0 L 0.703125 -6.03125 L 4.1875 -6.03125 Z M 4.1875 -5.46875 "/></g></g></g><g fill="#000000" fill-opacity="1"><g transform="translate(223.146512, 222.845936)"><g><path d="M 5.046875 -0.65625 L 5.1875 -0.140625 C 5.019531 -0.015625 4.789062 0.046875 4.5 0.046875 C 4.25 0.046875 4.023438 -0.00390625 3.828125 -0.109375 C 3.628906 -0.222656 3.4375 -0.421875 3.25 -0.703125 L 2.125 -2.359375 C 2.050781 -2.472656 1.960938 -2.5625 1.859375 -2.625 C 1.753906 -2.695312 1.648438 -2.734375 1.546875 -2.734375 L 1.34375 -2.734375 L 1.34375 0 L 0.703125 0 L 0.703125 -6.03125 L 2.390625 -6.03125 C 3.066406 -6.03125 3.582031 -5.882812 3.9375 -5.59375 C 4.300781 -5.300781 4.484375 -4.90625 4.484375 -4.40625 C 4.484375 -4.039062 4.394531 -3.734375 4.21875 -3.484375 C 4.039062 -3.242188 3.800781 -3.0625 3.5 -2.9375 C 3.195312 -2.8125 2.863281 -2.75 2.5 -2.75 L 2.453125 -2.75 C 2.609375 -2.675781 2.769531 -2.515625 2.9375 -2.265625 L 3.734375 -1.109375 C 3.835938 -0.941406 3.929688 -0.816406 4.015625 -0.734375 C 4.097656 -0.648438 4.179688 -0.59375 4.265625 -0.5625 C 4.359375 -0.53125 4.46875 -0.515625 4.59375 -0.515625 C 4.675781 -0.515625 4.753906 -0.523438 4.828125 -0.546875 C 4.910156 -0.578125 4.984375 -0.613281 5.046875 -0.65625 Z M 2.34375 -5.484375 L 1.34375 -5.484375 L 1.34375 -3.265625 L 2.265625 -3.265625 C 2.765625 -3.265625 3.148438 -3.351562 3.421875 -3.53125 C 3.691406 -3.707031 3.828125 -3.992188 3.828125 -4.390625 C 3.828125 -4.734375 3.707031 -5 3.46875 -5.1875 C 3.238281 -5.382812 2.863281 -5.484375 2.34375 -5.484375 Z M 2.34375 -5.484375 "/></g></g></g><g fill="#000000" fill-opacity="1"><g transform="translate(230.572073, 222.845936)"><g><path d="M 0.703125 0 L 0.703125 -6.03125 L 1.34375 -6.03125 L 1.34375 0 Z M 0.703125 0 "/></g></g></g><g fill="#000000" fill-opacity="1"><g transform="translate(235.097139, 222.845936)"><g><path d="M 4.765625 -6.03125 L 5.390625 -6.03125 L 5.390625 0 L 4.84375 0 L 1.328125 -4.9375 L 1.328125 0 L 0.703125 0 L 0.703125 -6.03125 L 1.265625 -6.03125 L 4.765625 -1.109375 Z M 4.765625 -6.03125 "/></g></g></g><g fill="#000000" fill-opacity="1"><g transform="translate(243.670978, 222.845936)"><g><path d="M 3.546875 -2.921875 L 5.65625 -2.921875 L 5.65625 0 L 5.15625 0 L 5.0625 -0.8125 C 4.675781 -0.226562 4.046875 0.0625 3.171875 0.0625 C 2.628906 0.0625 2.15625 -0.0507812 1.75 -0.28125 C 1.351562 -0.519531 1.046875 -0.859375 0.828125 -1.296875 C 0.609375 -1.742188 0.5 -2.28125 0.5 -2.90625 C 0.5 -3.539062 0.617188 -4.097656 0.859375 -4.578125 C 1.109375 -5.054688 1.457031 -5.429688 1.90625 -5.703125 C 2.351562 -5.984375 2.878906 -6.125 3.484375 -6.125 C 4.460938 -6.125 5.171875 -5.742188 5.609375 -4.984375 L 5.09375 -4.59375 C 4.757812 -5.207031 4.207031 -5.515625 3.4375 -5.515625 C 2.988281 -5.515625 2.59375 -5.40625 2.25 -5.1875 C 1.914062 -4.96875 1.648438 -4.660156 1.453125 -4.265625 C 1.265625 -3.878906 1.171875 -3.425781 1.171875 -2.90625 C 1.171875 -2.144531 1.351562 -1.554688 1.71875 -1.140625 C 2.082031 -0.734375 2.585938 -0.53125 3.234375 -0.53125 C 3.773438 -0.53125 4.207031 -0.671875 4.53125 -0.953125 C 4.863281 -1.234375 5.03125 -1.613281 5.03125 -2.09375 L 5.03125 -2.390625 L 3.546875 -2.390625 Z M 3.546875 -2.921875 "/></g></g></g><g fill="#000000" fill-opacity="1"><g transform="translate(252.329877, 222.845936)"><g/></g></g><g fill="#000000" fill-opacity="1"><g transform="translate(256.744375, 222.845936)"><g><path d="M 2.546875 0.0625 C 2.140625 0.0625 1.78125 -0.00390625 1.46875 -0.140625 C 1.164062 -0.285156 0.925781 -0.488281 0.75 -0.75 C 0.582031 -1.007812 0.5 -1.316406 0.5 -1.671875 C 0.5 -1.984375 0.550781 -2.242188 0.65625 -2.453125 C 0.757812 -2.671875 0.894531 -2.859375 1.0625 -3.015625 C 1.238281 -3.171875 1.425781 -3.3125 1.625 -3.4375 L 1.578125 -3.515625 C 1.347656 -3.765625 1.1875 -3.988281 1.09375 -4.1875 C 1 -4.382812 0.953125 -4.601562 0.953125 -4.84375 C 0.953125 -5.101562 1.007812 -5.332031 1.125 -5.53125 C 1.25 -5.726562 1.414062 -5.878906 1.625 -5.984375 C 1.84375 -6.097656 2.085938 -6.15625 2.359375 -6.15625 C 2.753906 -6.15625 3.070312 -6.046875 3.3125 -5.828125 C 3.5625 -5.617188 3.6875 -5.335938 3.6875 -4.984375 C 3.6875 -4.679688 3.625 -4.4375 3.5 -4.25 C 3.382812 -4.0625 3.234375 -3.894531 3.046875 -3.75 C 2.867188 -3.613281 2.675781 -3.488281 2.46875 -3.375 L 4.359375 -1.328125 C 4.492188 -1.535156 4.601562 -1.773438 4.6875 -2.046875 C 4.769531 -2.316406 4.828125 -2.617188 4.859375 -2.953125 L 3.921875 -2.953125 L 3.921875 -3.46875 L 6.25 -3.46875 L 6.25 -2.953125 L 5.375 -2.953125 C 5.351562 -2.546875 5.28125 -2.171875 5.15625 -1.828125 C 5.039062 -1.492188 4.890625 -1.203125 4.703125 -0.953125 C 4.878906 -0.785156 5.035156 -0.664062 5.171875 -0.59375 C 5.316406 -0.519531 5.476562 -0.476562 5.65625 -0.46875 C 5.832031 -0.46875 6.003906 -0.523438 6.171875 -0.640625 L 6.359375 -0.203125 C 6.140625 -0.0351562 5.878906 0.046875 5.578125 0.046875 C 5.347656 0.046875 5.128906 0 4.921875 -0.09375 C 4.722656 -0.1875 4.519531 -0.335938 4.3125 -0.546875 C 3.820312 -0.140625 3.234375 0.0625 2.546875 0.0625 Z M 2.09375 -3.78125 L 2.140625 -3.734375 C 2.316406 -3.847656 2.476562 -3.957031 2.625 -4.0625 C 2.78125 -4.175781 2.90625 -4.300781 3 -4.4375 C 3.09375 -4.582031 3.140625 -4.75 3.140625 -4.9375 C 3.140625 -5.175781 3.070312 -5.359375 2.9375 -5.484375 C 2.800781 -5.609375 2.613281 -5.671875 2.375 -5.671875 C 2.125 -5.671875 1.921875 -5.597656 1.765625 -5.453125 C 1.617188 -5.304688 1.546875 -5.109375 1.546875 -4.859375 C 1.546875 -4.679688 1.582031 -4.515625 1.65625 -4.359375 C 1.738281 -4.203125 1.882812 -4.007812 2.09375 -3.78125 Z M 1.125 -1.734375 C 1.125 -1.335938 1.257812 -1.023438 1.53125 -0.796875 C 1.8125 -0.566406 2.175781 -0.453125 2.625 -0.453125 C 3.15625 -0.453125 3.601562 -0.601562 3.96875 -0.90625 L 1.96875 -3.078125 C 1.738281 -2.929688 1.539062 -2.753906 1.375 -2.546875 C 1.207031 -2.347656 1.125 -2.078125 1.125 -1.734375 Z M 1.125 -1.734375 "/></g></g></g><g fill="#000000" fill-opacity="1"><g transform="translate(171.558905, 234.186935)"><g><path d="M 0.109375 0 L 2.609375 -6.03125 L 3.171875 -6.03125 L 5.578125 0 L 4.921875 0 L 4.296875 -1.609375 L 1.421875 -1.609375 L 0.78125 0 Z M 1.65625 -2.171875 L 4.078125 -2.171875 L 2.890625 -5.234375 Z M 1.65625 -2.171875 "/></g></g></g><g fill="#000000" fill-opacity="1"><g transform="translate(179.758483, 234.186935)"><g><path d="M 4.796875 -6.03125 L 5.453125 -6.03125 L 5.46875 -2.90625 C 5.46875 -1.9375 5.265625 -1.195312 4.859375 -0.6875 C 4.453125 -0.1875 3.84375 0.0625 3.03125 0.0625 C 2.238281 0.0625 1.644531 -0.144531 1.25 -0.5625 C 0.863281 -0.988281 0.671875 -1.660156 0.671875 -2.578125 L 0.671875 -6.03125 L 1.34375 -6.03125 L 1.34375 -2.609375 C 1.34375 -1.878906 1.472656 -1.347656 1.734375 -1.015625 C 2.003906 -0.691406 2.4375 -0.53125 3.03125 -0.53125 C 3.65625 -0.53125 4.109375 -0.722656 4.390625 -1.109375 C 4.671875 -1.503906 4.8125 -2.101562 4.8125 -2.90625 Z M 4.796875 -6.03125 "/></g></g></g><g fill="#000000" fill-opacity="1"><g transform="translate(188.374852, 234.186935)"><g><path d="M 4.640625 -6.03125 L 4.578125 -5.46875 L 2.65625 -5.46875 L 2.65625 0 L 1.984375 0 L 1.984375 -5.46875 L 0.015625 -5.46875 L 0.015625 -6.03125 Z M 4.640625 -6.03125 "/></g></g></g><g fill="#000000" fill-opacity="1"><g transform="translate(195.494199, 234.186935)"><g><path d="M 3.234375 0.0625 C 2.671875 0.0625 2.179688 -0.0507812 1.765625 -0.28125 C 1.359375 -0.519531 1.046875 -0.859375 0.828125 -1.296875 C 0.609375 -1.742188 0.5 -2.28125 0.5 -2.90625 C 0.5 -3.53125 0.617188 -4.082031 0.859375 -4.5625 C 1.109375 -5.050781 1.445312 -5.429688 1.875 -5.703125 C 2.3125 -5.984375 2.816406 -6.125 3.390625 -6.125 C 3.921875 -6.125 4.382812 -6 4.78125 -5.75 C 5.175781 -5.5 5.484375 -5.148438 5.703125 -4.703125 C 5.929688 -4.253906 6.046875 -3.734375 6.046875 -3.140625 C 6.046875 -2.484375 5.921875 -1.914062 5.671875 -1.4375 C 5.429688 -0.957031 5.097656 -0.585938 4.671875 -0.328125 C 4.253906 -0.0664062 3.773438 0.0625 3.234375 0.0625 Z M 3.234375 -0.53125 C 3.660156 -0.53125 4.03125 -0.632812 4.34375 -0.84375 C 4.664062 -1.050781 4.914062 -1.347656 5.09375 -1.734375 C 5.28125 -2.128906 5.375 -2.601562 5.375 -3.15625 C 5.375 -3.632812 5.289062 -4.050781 5.125 -4.40625 C 4.96875 -4.757812 4.738281 -5.03125 4.4375 -5.21875 C 4.144531 -5.414062 3.800781 -5.515625 3.40625 -5.515625 C 2.96875 -5.515625 2.578125 -5.40625 2.234375 -5.1875 C 1.898438 -4.96875 1.640625 -4.660156 1.453125 -4.265625 C 1.265625 -3.878906 1.171875 -3.425781 1.171875 -2.90625 C 1.171875 -2.144531 1.351562 -1.554688 1.71875 -1.140625 C 2.082031 -0.734375 2.585938 -0.53125 3.234375 -0.53125 Z M 3.234375 -0.53125 "/></g></g></g><g fill="#000000" fill-opacity="1"><g transform="translate(204.510334, 234.186935)"><g><path d="M 0.640625 0 L 0.90625 -6.03125 L 1.53125 -6.03125 L 3.890625 -0.796875 L 6.25 -6.03125 L 6.890625 -6.03125 L 7.109375 0 L 6.5 0 L 6.3125 -4.78125 L 4.140625 0 L 3.59375 0 L 1.46875 -4.765625 L 1.25 0 Z M 0.640625 0 "/></g></g></g><g fill="#000000" fill-opacity="1"><g transform="translate(214.759819, 234.186935)"><g><path d="M 0.109375 0 L 2.609375 -6.03125 L 3.171875 -6.03125 L 5.578125 0 L 4.921875 0 L 4.296875 -1.609375 L 1.421875 -1.609375 L 0.78125 0 Z M 1.65625 -2.171875 L 4.078125 -2.171875 L 2.890625 -5.234375 Z M 1.65625 -2.171875 "/></g></g></g><g fill="#000000" fill-opacity="1"><g transform="translate(222.959397, 234.186935)"><g><path d="M 4.640625 -6.03125 L 4.578125 -5.46875 L 2.65625 -5.46875 L 2.65625 0 L 1.984375 0 L 1.984375 -5.46875 L 0.015625 -5.46875 L 0.015625 -6.03125 Z M 4.640625 -6.03125 "/></g></g></g><g fill="#000000" fill-opacity="1"><g transform="translate(230.078741, 234.186935)"><g><path d="M 0.703125 0 L 0.703125 -6.03125 L 1.34375 -6.03125 L 1.34375 0 Z M 0.703125 0 "/></g></g></g><g fill="#000000" fill-opacity="1"><g transform="translate(234.603807, 234.186935)"><g><path d="M 3.234375 0.0625 C 2.671875 0.0625 2.179688 -0.0507812 1.765625 -0.28125 C 1.359375 -0.519531 1.046875 -0.859375 0.828125 -1.296875 C 0.609375 -1.742188 0.5 -2.28125 0.5 -2.90625 C 0.5 -3.53125 0.617188 -4.082031 0.859375 -4.5625 C 1.109375 -5.050781 1.445312 -5.429688 1.875 -5.703125 C 2.3125 -5.984375 2.816406 -6.125 3.390625 -6.125 C 3.921875 -6.125 4.382812 -6 4.78125 -5.75 C 5.175781 -5.5 5.484375 -5.148438 5.703125 -4.703125 C 5.929688 -4.253906 6.046875 -3.734375 6.046875 -3.140625 C 6.046875 -2.484375 5.921875 -1.914062 5.671875 -1.4375 C 5.429688 -0.957031 5.097656 -0.585938 4.671875 -0.328125 C 4.253906 -0.0664062 3.773438 0.0625 3.234375 0.0625 Z M 3.234375 -0.53125 C 3.660156 -0.53125 4.03125 -0.632812 4.34375 -0.84375 C 4.664062 -1.050781 4.914062 -1.347656 5.09375 -1.734375 C 5.28125 -2.128906 5.375 -2.601562 5.375 -3.15625 C 5.375 -3.632812 5.289062 -4.050781 5.125 -4.40625 C 4.96875 -4.757812 4.738281 -5.03125 4.4375 -5.21875 C 4.144531 -5.414062 3.800781 -5.515625 3.40625 -5.515625 C 2.96875 -5.515625 2.578125 -5.40625 2.234375 -5.1875 C 1.898438 -4.96875 1.640625 -4.660156 1.453125 -4.265625 C 1.265625 -3.878906 1.171875 -3.425781 1.171875 -2.90625 C 1.171875 -2.144531 1.351562 -1.554688 1.71875 -1.140625 C 2.082031 -0.734375 2.585938 -0.53125 3.234375 -0.53125 Z M 3.234375 -0.53125 "/></g></g></g><g fill="#000000" fill-opacity="1"><g transform="translate(243.61994, 234.186935)"><g><path d="M 4.765625 -6.03125 L 5.390625 -6.03125 L 5.390625 0 L 4.84375 0 L 1.328125 -4.9375 L 1.328125 0 L 0.703125 0 L 0.703125 -6.03125 L 1.265625 -6.03125 L 4.765625 -1.109375 Z M 4.765625 -6.03125 "/></g></g></g><g fill="#000000" fill-opacity="1"><g transform="translate(252.186321, 234.186935)"><g/></g></g></svg>